<svg width="21" height="21" viewBox="0 0 21 21" fill="none" xmlns="http://www.w3.org/2000/svg">
<path d="M4.00002 5.19999C4.00002 2.54903 6.14906 0.399994 8.80002 0.399994C11.4509 0.399994 13.6 2.54903 13.6 5.19999C13.6 7.85096 11.4509 9.99999 8.80002 9.99999C6.14906 9.99999 4.00002 7.85096 4.00002 5.19999ZM8.80002 1.59999C6.8118 1.59999 5.20002 3.21177 5.20002 5.19999C5.20002 7.18821 6.8118 8.79999 8.80002 8.79999C10.7883 8.79999 12.4 7.18821 12.4 5.19999C12.4 3.21177 10.7883 1.59999 8.80002 1.59999ZM0.400024 13.6C0.400024 12.2643 1.4838 11.2 2.8105 11.2H13.2049C13.0723 11.5754 13 11.9793 13 12.4H2.8105C2.13746 12.4 1.60002 12.936 1.60002 13.6C1.60002 15.1706 2.34674 16.3404 3.60717 17.1441C4.89184 17.9632 6.71789 18.4 8.80002 18.4C9.64905 18.4 10.4555 18.3274 11.2 18.1858V19.4051C10.4342 19.5359 9.62758 19.6 8.80002 19.6C6.57434 19.6 4.50039 19.1368 2.96201 18.1559C1.3994 17.1596 0.400024 15.6294 0.400024 13.6ZM14.2 13.6V12.4C14.2 11.0745 15.2745 9.99999 16.6 9.99999C17.9255 9.99999 19 11.0745 19 12.4V13.6H19.6C20.2628 13.6 20.8 14.1372 20.8 14.8V19.6C20.8 20.2628 20.2628 20.8 19.6 20.8H13.6C12.9373 20.8 12.4 20.2628 12.4 19.6V14.8C12.4 14.1372 12.9373 13.6 13.6 13.6H14.2ZM15.4 12.4V13.6H17.8V12.4C17.8 11.7372 17.2628 11.2 16.6 11.2C15.9373 11.2 15.4 11.7372 15.4 12.4ZM17.5 17.2C17.5 16.703 17.0971 16.3 16.6 16.3C16.103 16.3 15.7 16.703 15.7 17.2C15.7 17.697 16.103 18.1 16.6 18.1C17.0971 18.1 17.5 17.697 17.5 17.2Z" fill="#FE2A43"/>
</svg>
